# xmcd
#
# Track frame offsets:
#	150
#	21147
#	59175
#	80702
#
# Disc length: 1463 seconds
#
# Revision: 0
# Processed by: cddbd v1.5.2PL0 Copyright (c) Steve Scherf et al.
# Submitted via: EasyCDDAExtractor 10.0.5.1
#
DISCID=3305b504
DTITLE=De-Code - Wonderwall Some Might Say
DYEAR=1996
DGENRE=Dance
TTITLE0=Wonderwall (Radio Mix)
TTITLE1=Wonderwall (Mr.B's Euromix)
TTITLE2=Some Might Say (Radio Mix)
TTITLE3=Some Might Say (Club Mix)
EXTD=
EXTT0=
EXTT1=
EXTT2=
EXTT3=
PLAYORDER=
